<svg width="140" height="140" viewBox="0 0 140 140" fill="none" xmlns="http://www.w3.org/2000/svg">
<path d="M69.922 66.4452C69.922 72.3464 58.9689 77.1261 45.461 77.1261C31.9531 77.1261 21 72.3464 21 66.4452M69.922 66.4452C69.922 60.5441 58.9689 55.7644 45.461 55.7644C31.9531 55.7644 21 60.5441 21 66.4452M69.922 66.4452V79.7963M21 66.4452V79.7963M69.922 79.7963C69.922 85.6974 58.9689 90.4771 45.461 90.4771C31.9531 90.4771 21 85.6974 21 79.7963M69.922 79.7963V93.1473C69.922 99.0485 58.9689 103.828 45.461 103.828C31.9531 103.828 21 99.0485 21 93.1473V79.7963" stroke="#F6F5F7" stroke-width="1.14438" stroke-linecap="round" stroke-linejoin="round"/>
<path d="M96.987 101.368C95.9696 90.8009 88.8619 84.3739 80.508 84.3739C72.6118 84.3739 67.5262 90.0622 65.86 95.7032C58.9937 96.4113 53.043 100.847 53.043 108.921C53.043 116.71 59.2226 122.138 66.7755 122.138H96.5292C102.823 122.138 107.973 118.9 107.973 111.753C107.973 104.693 101.908 101.632 96.987 101.368Z" fill="#5BF0F0"/>
<path d="M118.351 39.8367L111.788 33.2742C111.701 33.1872 111.598 33.1182 111.484 33.0711C111.37 33.0241 111.248 32.9999 111.125 33H99.875C99.3777 33 98.9008 33.1975 98.5492 33.5492C98.1975 33.9008 98 34.3777 98 34.875V55.5C98 55.9973 98.1975 56.4742 98.5492 56.8258C98.9008 57.1775 99.3777 57.375 99.875 57.375H116.75C117.247 57.375 117.724 57.1775 118.076 56.8258C118.427 56.4742 118.625 55.9973 118.625 55.5V40.5C118.625 40.3768 118.601 40.2549 118.554 40.1411C118.507 40.0273 118.438 39.9238 118.351 39.8367ZM111.125 40.5V35.3438L116.281 40.5H111.125Z" fill="#5BF0F0"/>
<path fill-rule="evenodd" clip-rule="evenodd" d="M97.8329 25.125H108.75C109.297 25.125 109.822 25.3423 110.208 25.7291C110.595 26.1159 110.812 26.6405 110.812 27.1875V32H99C97.8954 32 97 32.8954 97 34V43.5C97 43.5641 97.006 43.6268 97.0176 43.6875H85.9839C85.4581 43.6868 84.9541 43.4778 84.5823 43.1061C84.2104 42.7345 84.001 42.2306 84 41.7049V23.0625C84 22.5155 84.2173 21.9909 84.6041 21.6041C84.9909 21.2173 85.5155 21 86.0625 21H92.8546C93.1255 20.9993 93.3939 21.0524 93.6441 21.1561C93.8944 21.2599 94.1216 21.4123 94.3125 21.6046L97.8329 25.125ZM98.9824 43.6875H108.865C109.381 43.6868 109.876 43.4814 110.241 43.1163C110.606 42.7511 110.812 42.2561 110.812 41.7397V34H99V43.5C99 43.5641 98.994 43.6268 98.9824 43.6875ZM92.8546 23.0625H86.0625V25.125H94.9171L92.8546 23.0625Z" fill="#5BF0F0"/>
<path d="M78.5 33.5H43V50.5M109 65.5V93.5H101" stroke="#F6F5F7" stroke-linecap="round" stroke-linejoin="round" stroke-dasharray="1 4"/>
</svg>
