<svg width="140" height="140" viewBox="0 0 140 140" fill="none" xmlns="http://www.w3.org/2000/svg">
<path fill-rule="evenodd" clip-rule="evenodd" d="M75.1679 76.3821C73.8077 77.7423 71.9628 78.5065 70.0391 78.5065C68.1154 78.5065 66.2705 77.7423 64.9102 76.3821C63.55 75.0218 62.7858 73.1769 62.7858 71.2533C62.7858 69.3296 63.55 67.4847 64.9102 66.1244C66.2705 64.7642 68.1154 64 70.0391 64C71.9628 64 73.8077 64.7642 75.1679 66.1244C76.5282 67.4847 77.2923 69.3296 77.2923 71.2533C77.2923 73.1769 76.5282 75.0218 75.1679 76.3821ZM84.8632 95.4336C84.8754 95.7462 84.6207 96 84.3079 96L56.5557 96C56.2429 96 55.9882 95.7462 56.0004 95.4336C56.1425 91.809 57.6447 88.3623 60.2194 85.7876C62.9279 83.0791 66.6014 81.5575 70.4318 81.5575C74.2622 81.5575 77.9357 83.0791 80.6442 85.7876C83.2189 88.3623 84.721 91.809 84.8632 95.4336Z" fill="#5BF0F0"/>
<circle cx="111.866" cy="57.8657" r="19.3274" stroke="#F6F5F7" stroke-width="1.07659"/>
<path d="M122 49.5C122.276 49.5 122.5 49.7239 122.5 50L122.5 61.5L103 61.5C102.724 61.5 102.5 61.2761 102.5 61L102.5 50C102.5 49.7239 102.724 49.5 103 49.5L122 49.5Z" stroke="#F6F5F7"/>
<path d="M102.36 61.5L122.64 61.5L124.087 65.8419C124.195 66.1657 123.954 66.5 123.613 66.5L101.387 66.5C101.046 66.5 100.805 66.1657 100.913 65.8419L102.36 61.5Z" stroke="#F6F5F7"/>
<path d="M110.5 65L114.5 65" stroke="#F6F5F7" stroke-linecap="round"/>
<path fill-rule="evenodd" clip-rule="evenodd" d="M89.6149 40.0321L89.8603 39.5952L90.124 39.1259C89.985 39.0478 89.8455 38.9705 89.7055 38.894C89.686 39.2764 89.6557 39.6558 89.6149 40.0321ZM96.6691 43.7072L96.3186 44.1158L95.9681 44.5243C95.7218 44.3129 95.4728 44.1046 95.2213 43.8993L95.5617 43.4823L95.9021 43.0653C96.1604 43.2761 96.4161 43.4901 96.6691 43.7072ZM93.5096 41.2551L93.2008 41.6961L92.8921 42.137C92.6263 41.9509 92.3582 41.7681 92.0877 41.5885L92.3855 41.1401L92.6832 40.6916C92.9611 40.8761 93.2365 41.064 93.5096 41.2551ZM48.3169 40.6916L48.6146 41.1401L48.9124 41.5885C48.6419 41.7681 48.3738 41.9509 48.108 42.137L47.7993 41.6961L47.4905 41.2551C47.7636 41.064 48.039 40.8761 48.3169 40.6916ZM45.0981 43.0653L45.4384 43.4823L45.7788 43.8993C45.5273 44.1046 45.2784 44.313 45.032 44.5243L44.6815 44.1158L44.331 43.7072C44.584 43.4901 44.8397 43.2761 45.0981 43.0653ZM30.1455 78.4994L30.6819 78.4546L31.2184 78.4098C31.2454 78.7339 31.2763 79.0569 31.311 79.3787L30.7758 79.4363L30.2406 79.494C30.205 79.1636 30.1733 78.832 30.1455 78.4994ZM30.6696 82.4642L31.1992 82.368L31.7289 82.2717C31.7869 82.5914 31.8488 82.9098 31.9143 83.2267L31.3872 83.3358L30.8601 83.4448C30.7928 83.1193 30.7293 82.7924 30.6696 82.4642ZM31.5747 86.3597L32.0925 86.2125L32.6103 86.0653C32.6991 86.3777 32.7915 86.6886 32.8876 86.9978L32.3736 87.1575L31.8595 87.3173C31.7609 86.9997 31.6659 86.6805 31.5747 86.3597ZM32.8543 90.1487L33.3553 89.9518L33.8563 89.7549C33.9751 90.0572 34.0974 90.3576 34.2232 90.6562L33.7272 90.8652L33.2311 91.0743C33.1019 90.7676 32.9763 90.4591 32.8543 90.1487ZM34.4967 93.7952L34.9762 93.5504L35.4556 93.3057C35.6033 93.595 35.7543 93.8822 35.9087 94.1673L35.4354 94.4236L34.962 94.6799C34.8035 94.3872 34.6484 94.0922 34.4967 93.7952ZM36.4862 97.2646L36.9396 96.9744L37.393 96.6842C37.568 96.9578 37.7463 97.229 37.9278 97.4979L37.4816 97.799L37.0354 98.1001C36.8491 97.824 36.666 97.5455 36.4862 97.2646ZM38.8034 100.524L39.2265 100.191L39.6495 99.8586C39.8503 100.114 40.0541 100.366 40.261 100.617L39.8461 100.96L39.4313 101.303C39.2189 101.046 39.0096 100.786 38.8034 100.524ZM41.4264 103.543L41.8151 103.171L42.2038 102.799C42.4284 103.033 42.6559 103.265 42.8861 103.494L42.5066 103.875L42.1271 104.257C41.8907 104.022 41.6571 103.784 41.4264 103.543ZM44.331 106.293L44.6815 105.884L45.032 105.476C45.2784 105.687 45.5273 105.895 45.7788 106.101L45.4384 106.518L45.0981 106.935C44.8397 106.724 44.584 106.51 44.331 106.293ZM47.4905 108.745L47.7993 108.304L48.108 107.863C48.3738 108.049 48.6419 108.232 48.9124 108.411L48.6146 108.86L48.3169 109.308C48.039 109.124 47.7636 108.936 47.4905 108.745ZM50.8761 110.874L51.1398 110.405L51.4034 109.935C51.6861 110.094 51.9709 110.25 52.2578 110.402L52.0059 110.877L51.754 111.353C51.4592 111.197 51.1666 111.037 50.8761 110.874ZM54.4561 112.657L54.6718 112.164L54.8874 111.671C55.1843 111.8 55.483 111.927 55.7836 112.049L55.5804 112.548L55.3771 113.046C55.0682 112.92 54.7612 112.79 54.4561 112.657ZM85.623 113.046L85.4198 112.548L85.2165 112.049C85.5171 111.927 85.8159 111.8 86.1127 111.671L86.3284 112.164L86.544 112.657C86.2389 112.79 85.9319 112.92 85.623 113.046ZM89.2461 111.353L88.9942 110.877L88.7423 110.402C89.0292 110.25 89.314 110.094 89.5967 109.935L89.8604 110.405L90.124 110.874C89.8336 111.037 89.5409 111.197 89.2461 111.353ZM92.6833 109.308L92.3855 108.86L92.0877 108.411C92.3582 108.232 92.6263 108.049 92.8921 107.863L93.2008 108.304L93.5096 108.745C93.2365 108.936 92.9611 109.124 92.6833 109.308ZM95.9021 106.935L95.5617 106.518L95.2213 106.101C95.4728 105.895 95.7218 105.687 95.9681 105.476L96.3186 105.884L96.6691 106.293C96.4161 106.51 96.1604 106.724 95.9021 106.935ZM98.873 104.257L98.4935 103.875L98.114 103.494C98.3442 103.265 98.5717 103.033 98.7963 102.799L99.185 103.171L99.5737 103.543C99.343 103.784 99.1094 104.022 98.873 104.257ZM101.569 101.303L101.154 100.96L100.739 100.617C100.946 100.366 101.15 100.114 101.351 99.8586L101.774 100.191L102.197 100.524C101.991 100.786 101.781 101.046 101.569 101.303ZM103.965 98.1001L103.519 97.799L103.072 97.4979C103.254 97.229 103.432 96.9578 103.607 96.6842L104.061 96.9744L104.514 97.2646C104.334 97.5455 104.151 97.824 103.965 98.1001ZM106.038 94.6799L105.565 94.4236L105.091 94.1673C105.246 93.8822 105.397 93.595 105.544 93.3057L106.024 93.5504L106.503 93.7952C106.352 94.0922 106.197 94.3871 106.038 94.6799ZM107.769 91.0743L107.273 90.8652L106.777 90.6562C106.903 90.3576 107.025 90.0572 107.144 89.7549L107.645 89.9518L108.146 90.1487C108.024 90.4591 107.898 90.7676 107.769 91.0743ZM109.141 87.3173L108.627 87.1575L108.112 86.9978C108.209 86.6886 108.301 86.3777 108.39 86.0653L108.908 86.2125L109.425 86.3597C109.334 86.6805 109.239 86.9997 109.141 87.3173ZM110.14 83.4448L109.613 83.3357L109.086 83.2267C109.151 82.9098 109.213 82.5914 109.271 82.2717L109.801 82.368L110.331 82.4642C110.271 82.7924 110.207 83.1193 110.14 83.4448ZM110.76 79.494C110.795 79.1636 110.827 78.832 110.855 78.4994L110.318 78.4546L109.782 78.4098C109.755 78.7339 109.724 79.0569 109.689 79.3787L110.224 79.4363L110.76 79.494Z" fill="#F6F5F7"/>
<circle cx="27.8657" cy="57.8657" r="19.3274" stroke="#F6F5F7" stroke-width="1.07659"/>
<rect x="22.5" y="47.5" width="11" height="20" rx="0.5" stroke="#F6F5F7"/>
<path d="M26 50H30" stroke="#F6F5F7" stroke-linecap="round"/>
<circle cx="69.8657" cy="34.8657" r="19.3274" stroke="#F6F5F7" stroke-width="1.07659"/>
<path d="M79.1763 44.1782V34.0901" stroke="#F6F5F7" stroke-linecap="round" stroke-linejoin="round"/>
<path d="M60.5522 34.0898V44.1779" stroke="#F6F5F7" stroke-linecap="round" stroke-linejoin="round"/>
<path d="M75.9978 24.778H63.7301C62.6733 24.778 61.7188 25.36 61.3085 26.2553L59.2084 30.8405C58.5013 32.3833 59.6755 34.1312 61.4971 34.187H61.5941C63.117 34.187 64.3514 32.9658 64.3514 31.6538C64.3514 32.9634 65.5862 34.187 67.1091 34.187C68.632 34.187 69.8639 33.0531 69.8639 31.6538C69.8639 32.9634 71.0983 34.187 72.6212 34.187C74.1441 34.187 75.3789 33.0531 75.3789 31.6538C75.3789 33.0531 76.6132 34.187 78.1361 34.187H78.2307C80.0524 34.1303 81.2266 32.3823 80.5194 30.8405L78.4194 26.2553C78.0091 25.36 77.0546 24.778 75.9978 24.778Z" stroke="#F6F5F7" stroke-linecap="round" stroke-linejoin="round"/>
<path d="M59 44.9541H80.7281" stroke="#F6F5F7" stroke-linecap="round" stroke-linejoin="round"/>
<path d="M64.0444 36.4178H67.9244C68.2331 36.4178 68.5292 36.5405 68.7475 36.7588C68.9658 36.9771 69.0884 37.2731 69.0884 37.5819V41.8499H62.8804V37.5819C62.8804 37.2731 63.003 36.9771 63.2213 36.7588C63.4396 36.5405 63.7357 36.4178 64.0444 36.4178Z" stroke="#F6F5F7" stroke-linecap="round" stroke-linejoin="round"/>
<path d="M71.4175 44.9539V37.5819C71.4175 37.2731 71.5401 36.9771 71.7584 36.7588C71.9767 36.5405 72.2728 36.4178 72.5815 36.4178H75.6855C75.9942 36.4178 76.2903 36.5405 76.5086 36.7588C76.7269 36.9771 76.8495 37.2731 76.8495 37.5819V44.9539" stroke="#F6F5F7" stroke-linecap="round" stroke-linejoin="round"/>
<path d="M78.7826 107.174L77.0297 112.435L78.7826 107.174ZM77.0297 112.435L74.5739 119.8H65.1043L63 112.435H77.0297Z" stroke="#5BF0F0" stroke-linecap="round" stroke-linejoin="round"/>
<path d="M67.2124 124.029L67.2323 124.007" stroke="#5BF0F0" stroke-width="2" stroke-linecap="round" stroke-linejoin="round"/>
<path d="M73.5234 124.029L73.5433 124.007" stroke="#5BF0F0" stroke-width="2" stroke-linecap="round" stroke-linejoin="round"/>
</svg>
