<svg width="140" height="140" viewBox="0 0 140 140" fill="none" xmlns="http://www.w3.org/2000/svg">
<g clip-path="url(#clip0_2619_8707)">
<path d="M65.0418 52.7812V46.0938H63.9272V52.7812H65.0418ZM66.7137 44.4219H67.8283V43.3073H66.7137V44.4219ZM70.6147 41.6354V26.0312H69.5002V41.6354H70.6147ZM67.8283 23.2448H38.8491V24.3594H67.8283V23.2448ZM76.1877 52.7812V51.1094H75.0731V52.7812H76.1877ZM77.8595 49.4375H83.4324V48.3229H77.8595V49.4375ZM86.2189 46.651V33.276H85.1043V46.651H86.2189ZM87.8908 31.6042H101.266V30.4896H87.8908V31.6042ZM62.8127 105.167V106.839H63.9272V105.724L62.8127 105.167ZM65.5991 109.625H68.9429V108.51H65.5991V109.625ZM70.6147 111.297V116.312H71.7293V111.297H70.6147ZM68.9429 117.984H41.0783V119.099H68.9429V117.984ZM39.4064 116.312V109.068H38.2918V116.312H39.4064ZM36.62 106.281H25.4741V107.396H36.62V106.281ZM88.4481 101.266V106.839H89.5627V101.266H88.4481ZM91.2345 109.625H104.61V108.51H91.2345V109.625ZM92.9064 79.5313H95.6929V78.4167H92.9064V79.5313ZM97.3647 81.2031V85.6615H98.4793V81.2031H97.3647ZM100.151 88.4479H111.297V87.3333H100.151V88.4479ZM112.969 90.1198V118.542H114.083V90.1198H112.969ZM91.7918 65.0417H101.266V63.9271H91.7918V65.0417ZM104.052 62.2552V53.3385H102.938V62.2552H104.052ZM105.724 51.6667H119.656V50.5521H105.724V51.6667ZM47.2085 63.9271H42.1929V65.0417H47.2085V63.9271ZM40.521 62.2552V60.026H39.4064V62.2552H40.521ZM37.7345 57.2396H25.4741V58.3542H37.7345V57.2396ZM23.8022 55.5677V47.7656H22.6877V55.5677H23.8022ZM46.0939 78.4167H36.62V79.5313H46.0939V78.4167ZM33.8335 81.2031V87.8906H34.9481V81.2031H33.8335ZM32.1616 89.5625H21.5731V90.6771H32.1616V89.5625ZM19.9012 87.8906V77.3021H18.7866V87.8906H19.9012ZM104.052 28.8177V19.3438H102.938V28.8177H104.052ZM21.5731 89.5625C20.6497 89.5625 19.9012 88.8139 19.9012 87.8906H18.7866C18.7866 89.4295 20.0342 90.6771 21.5731 90.6771V89.5625ZM33.8335 87.8906C33.8335 88.8139 33.0849 89.5625 32.1616 89.5625V90.6771C33.7005 90.6771 34.9481 89.4295 34.9481 87.8906H33.8335ZM36.62 78.4167C35.081 78.4167 33.8335 79.6642 33.8335 81.2031H34.9481C34.9481 80.2798 35.6966 79.5313 36.62 79.5313V78.4167ZM40.521 60.026C40.521 58.4871 39.2734 57.2396 37.7345 57.2396V58.3542C38.6579 58.3542 39.4064 59.1027 39.4064 60.026H40.521ZM101.266 65.0417C102.805 65.0417 104.052 63.7941 104.052 62.2552H102.938C102.938 63.1785 102.189 63.9271 101.266 63.9271V65.0417ZM95.6929 79.5313C96.6162 79.5313 97.3647 80.2798 97.3647 81.2031H98.4793C98.4793 79.6642 97.2318 78.4167 95.6929 78.4167V79.5313ZM88.4481 106.839C88.4481 108.377 89.6956 109.625 91.2345 109.625V108.51C90.3112 108.51 89.5627 107.762 89.5627 106.839H88.4481ZM86.7762 98.4792C87.6995 98.4792 88.4481 100.342 88.4481 101.266H89.5627C89.5627 99.7267 88.8724 97.9219 87.3335 97.9219L86.7762 98.4792ZM39.4064 109.068C39.4064 107.529 38.1589 106.281 36.62 106.281V107.396C37.5433 107.396 38.2918 108.144 38.2918 109.068H39.4064ZM25.4741 57.2396C24.5508 57.2396 23.8022 56.491 23.8022 55.5677H22.6877C22.6877 57.1066 23.9352 58.3542 25.4741 58.3542V57.2396ZM62.8127 106.839C62.8127 108.377 64.0602 109.625 65.5991 109.625V108.51C64.6758 108.51 63.9272 107.762 63.9272 106.839H62.8127ZM42.1929 63.9271C41.2695 63.9271 40.521 63.1785 40.521 62.2552H39.4064C39.4064 63.7941 40.654 65.0417 42.1929 65.0417V63.9271ZM101.266 31.6042C102.805 31.6042 104.052 30.3566 104.052 28.8177H102.938C102.938 29.741 102.189 30.4896 101.266 30.4896V31.6042ZM86.2189 33.276C86.2189 32.3527 86.9675 31.6042 87.8908 31.6042V30.4896C86.3519 30.4896 85.1043 31.7371 85.1043 33.276H86.2189ZM41.0783 117.984C40.155 117.984 39.4064 117.236 39.4064 116.312H38.2918C38.2918 117.851 39.5394 119.099 41.0783 119.099V117.984ZM70.6147 26.0312C70.6147 24.4923 69.3672 23.2448 67.8283 23.2448V24.3594C68.7516 24.3594 69.5002 25.1079 69.5002 26.0312H70.6147ZM83.4324 49.4375C84.9714 49.4375 86.2189 48.1899 86.2189 46.651H85.1043C85.1043 47.5744 84.3558 48.3229 83.4324 48.3229V49.4375ZM70.6147 116.312C70.6147 117.236 69.8662 117.984 68.9429 117.984V119.099C70.4818 119.099 71.7293 117.851 71.7293 116.312H70.6147ZM111.297 88.4479C112.22 88.4479 112.969 89.1965 112.969 90.1198H114.083C114.083 88.5809 112.836 87.3333 111.297 87.3333V88.4479ZM67.8283 44.4219C69.3672 44.4219 70.6147 43.1743 70.6147 41.6354H69.5002C69.5002 42.5587 68.7516 43.3073 67.8283 43.3073V44.4219ZM104.052 53.3385C104.052 52.4152 104.801 51.6667 105.724 51.6667V50.5521C104.185 50.5521 102.938 51.7996 102.938 53.3385H104.052ZM76.1877 51.1094C76.1877 50.1861 76.9362 49.4375 77.8595 49.4375V48.3229C76.3206 48.3229 75.0731 49.5705 75.0731 51.1094H76.1877ZM68.9429 109.625C69.8662 109.625 70.6147 110.374 70.6147 111.297H71.7293C71.7293 109.758 70.4818 108.51 68.9429 108.51V109.625ZM97.3647 85.6615C97.3647 87.2004 98.6123 88.4479 100.151 88.4479V87.3333C99.2279 87.3333 98.4793 86.5848 98.4793 85.6615H97.3647ZM65.0418 46.0938C65.0418 45.1704 65.7904 44.4219 66.7137 44.4219V43.3073C65.1748 43.3073 63.9272 44.5548 63.9272 46.0938H65.0418Z" fill="white"/>
<path d="M39.9634 23.8021C39.9634 25.6488 38.4664 27.1459 36.6196 27.1459C34.7729 27.1459 33.2759 25.6488 33.2759 23.8021C33.2759 21.9554 34.7729 20.4584 36.6196 20.4584C38.4664 20.4584 39.9634 21.9554 39.9634 23.8021Z" fill="#5BF0F0"/>
<path d="M26.5884 44.9791C26.5884 46.8259 25.0913 48.3229 23.2446 48.3229C21.3979 48.3229 19.9009 46.8259 19.9009 44.9791C19.9009 43.1324 21.3979 41.6354 23.2446 41.6354C25.0913 41.6354 26.5884 43.1324 26.5884 44.9791Z" fill="#5BF0F0"/>
<path d="M106.838 19.3438C106.838 21.1904 105.341 22.6875 103.495 22.6875C101.648 22.6875 100.151 21.1904 100.151 19.3438C100.151 17.4971 101.648 16 103.495 16C105.341 16 106.838 17.4971 106.838 19.3438Z" fill="#5BF0F0"/>
<path d="M123 50.5521C123 52.3989 121.503 53.8959 119.656 53.8959C117.809 53.8959 116.312 52.3989 116.312 50.5521C116.312 48.7054 117.809 47.2084 119.656 47.2084C121.503 47.2084 123 48.7054 123 50.5521Z" fill="#5BF0F0"/>
<path d="M116.87 119.656C116.87 121.503 115.373 123 113.526 123C111.679 123 110.182 121.503 110.182 119.656C110.182 117.809 111.679 116.312 113.526 116.312C115.373 116.312 116.87 117.809 116.87 119.656Z" fill="#5BF0F0"/>
<path d="M106.281 109.625C106.281 111.472 104.784 112.969 102.938 112.969C101.091 112.969 99.5938 111.472 99.5938 109.625C99.5938 107.778 101.091 106.281 102.938 106.281C104.784 106.281 106.281 107.778 106.281 109.625Z" fill="#5BF0F0"/>
<path d="M27.146 106.839C27.146 108.685 25.6489 110.182 23.8022 110.182C21.9555 110.182 20.4585 108.685 20.4585 106.839C20.4585 104.992 21.9555 103.495 23.8022 103.495C25.6489 103.495 27.146 104.992 27.146 106.839Z" fill="#5BF0F0"/>
<path d="M22.6875 77.3021C22.6875 79.1489 21.1904 80.6459 19.3438 80.6459C17.4971 80.6459 16 79.1489 16 77.3021C16 75.4554 17.4971 73.9584 19.3438 73.9584C21.1904 73.9584 22.6875 75.4554 22.6875 77.3021Z" fill="#5BF0F0"/>
<path d="M94.1721 84.1967L94.1691 84.1949L92.7079 83.3507C92.9837 81.9201 93.1219 80.4906 93.1219 79.0936C93.1219 77.6948 92.9833 76.2666 92.7397 74.8414L94.2069 73.9936C94.2073 73.9935 94.2076 73.9933 94.2079 73.9931C94.9006 73.5969 95.3981 72.9496 95.5959 72.1586C95.7897 71.3833 95.6942 70.5922 95.2981 69.899L95.2968 69.8969L90.357 61.3425C90.3567 61.342 90.3564 61.3416 90.3562 61.3411C89.96 60.6486 89.3127 60.1512 88.5219 59.9535C87.7466 59.7597 86.9556 59.8552 86.2624 60.2513L86.2601 60.2527L84.7952 61.099C82.6218 59.2561 80.1131 57.7958 77.455 56.8442V55.1915C77.455 53.5581 76.1208 52.224 74.4874 52.224H64.5248C62.8914 52.224 61.5573 53.5581 61.5573 55.1915V56.8844C58.8992 57.836 56.3905 59.2962 54.217 61.1392L52.7522 60.2928L52.7499 60.2915C52.0567 59.8954 51.2656 59.7999 50.4903 59.9937C49.6823 60.1957 49.0917 60.7024 48.6704 61.3578L48.6632 61.369L48.6565 61.3805L43.7154 69.937L43.7154 69.937L43.7142 69.9392C43.3181 70.6324 43.2225 71.4235 43.4164 72.1988L43.4163 72.1988L43.4185 72.2072C43.619 72.9588 44.1149 73.5909 44.7805 74.0187L44.7916 74.0259L44.803 74.0325L46.2641 74.8767C45.9884 76.3073 45.8502 77.7368 45.8502 79.1338C45.8502 80.5317 45.9886 81.9588 46.2319 83.3831L44.8065 84.1929L44.8065 84.1929L44.8 84.1967C43.3824 85.0277 42.8703 86.8516 43.7184 88.2553L48.6565 96.8068L48.6584 96.8099C49.4893 98.2275 51.3133 98.7396 52.717 97.8915L54.1769 97.048C56.3503 98.891 58.859 100.351 61.5171 101.303V102.996C61.5171 104.629 62.8512 105.963 64.4847 105.963H74.3669C76.0003 105.963 77.3345 104.629 77.3345 102.996V101.303C79.9926 100.351 82.5013 98.891 84.6747 97.048L86.1365 97.8926C86.1371 97.893 86.1377 97.8933 86.1383 97.8937C87.5667 98.7297 89.3995 98.2424 90.1976 96.8023L95.1233 88.2724C96.1133 86.8585 95.5842 85.0245 94.1721 84.1967ZM87.9855 95.5246L87.9816 95.5313L87.9779 95.5381C87.899 95.6828 87.6979 95.738 87.5487 95.6485L87.5487 95.6484L87.5412 95.6441L85.2514 94.3184L85.2487 94.3168C84.7401 94.0262 84.1247 94.1217 83.6855 94.4981L83.6787 94.504L83.672 94.5101C81.3598 96.6263 78.6184 98.2313 75.6452 99.1702L75.6312 99.1747L75.6174 99.1798C75.1395 99.359 74.6934 99.812 74.6934 100.425V103.076C74.6934 103.25 74.5412 103.403 74.3669 103.403H64.5248C64.3506 103.403 64.1984 103.25 64.1984 103.076V100.385C64.1984 99.8527 63.8652 99.278 63.2239 99.1231C60.2992 98.2231 57.5259 96.6209 55.2198 94.5101L55.1997 94.4917L55.1779 94.4754C54.9683 94.3182 54.691 94.1631 54.3213 94.1631C54.205 94.1631 54.0795 94.1815 53.9615 94.2178C53.8707 94.2458 53.7485 94.2952 53.6357 94.3845L51.3982 95.6799C51.2272 95.7701 51.0355 95.7093 50.9447 95.5618L46.0106 86.9773C45.9199 86.806 45.9809 86.6137 46.1289 86.5229L48.4113 85.2015C48.4118 85.2013 48.4122 85.201 48.4126 85.2008C48.9036 84.9195 49.1772 84.3111 49.0385 83.7446C48.6881 82.2247 48.5315 80.6617 48.5315 79.1338C48.5315 77.6166 48.7257 76.0516 49.0403 74.5154C49.1748 73.9512 48.9015 73.3471 48.4129 73.067C48.4124 73.0667 48.4119 73.0664 48.4113 73.0661L46.129 71.7447C46.0885 71.7199 46.0512 71.6863 46.0239 71.6512C45.9974 71.6171 45.9907 71.5954 45.9899 71.5929C45.9898 71.5927 45.9898 71.5926 45.9898 71.5928L45.983 71.5587L45.972 71.5258C45.9583 71.4845 45.9571 71.45 45.9604 71.4259C45.9635 71.4032 45.9698 71.3934 45.9698 71.3933L45.9896 71.3669L46.0063 71.338L50.9445 62.7864C50.9693 62.746 51.0029 62.7088 51.0379 62.6816C51.072 62.6551 51.0937 62.6484 51.0962 62.6476C51.0964 62.6475 51.0965 62.6475 51.0963 62.6475L51.1303 62.6407L51.1633 62.6297C51.2045 62.616 51.2391 62.6148 51.2632 62.6181C51.2862 62.6212 51.2959 62.6277 51.2957 62.6275L51.3219 62.6471L51.3506 62.6637L53.6403 63.9894L53.6403 63.9894L53.6431 63.9909C54.1516 64.2815 54.767 64.1861 55.2062 63.8097L55.2131 63.8038L55.2198 63.7976C57.5319 61.6814 60.2733 60.0764 63.2465 59.1376L63.2605 59.1331L63.2743 59.1279C63.7522 58.9487 64.1984 58.4957 64.1984 57.883V55.1915C64.1984 55.0173 64.3506 54.8651 64.5248 54.8651H74.4071C74.5813 54.8651 74.7335 55.0173 74.7335 55.1915V57.8429C74.7335 58.3747 75.0667 58.9495 75.708 59.1043C78.6294 60.0033 81.3997 61.6029 83.7043 63.7101C84.1376 64.1346 84.7602 64.1759 85.2616 63.9252L85.2768 63.9175L85.2916 63.909L87.5814 62.5833L87.5814 62.5834L87.5889 62.5789C87.6648 62.5334 87.7376 62.5257 87.8088 62.5494C87.9395 62.593 87.9851 62.6363 88.0274 62.7058L92.9658 71.2577L92.9657 71.2577L92.9705 71.2657C92.9951 71.3067 93.0076 71.3458 93.0117 71.3757C93.0154 71.4032 93.0112 71.4149 93.0112 71.4149L93.0113 71.4147C92.9512 71.565 92.8914 71.6343 92.8427 71.6646L90.5607 72.9857C90.5601 72.9861 90.5596 72.9864 90.559 72.9867C90.0682 73.2682 89.7948 73.8765 89.9337 74.4428C90.284 75.9627 90.4406 77.5256 90.4406 79.0535C90.4406 80.5707 90.2464 82.1357 89.9318 83.6719C89.7973 84.2363 90.0707 84.8405 90.5596 85.1205C90.56 85.1208 90.5604 85.121 90.5607 85.1212L92.8068 86.4215C93.0177 86.6066 93.0391 86.8288 92.9619 86.9763L87.9855 95.5246Z" stroke="#F6F5F7" stroke-width="1.11458"/>
<mask id="path-11-inside-1_2619_8707" fill="white">
<path fill-rule="evenodd" clip-rule="evenodd" d="M88.5485 95.8053L93.5297 87.2488C93.7708 86.8069 93.6101 86.2847 93.2084 85.9633L90.9186 84.6376C90.6374 84.4769 90.4767 84.1154 90.557 83.794C90.8784 82.2273 91.0793 80.6205 91.0793 79.0538C91.0793 77.4871 90.9186 75.8802 90.557 74.3135C90.4767 73.9922 90.6374 73.6306 90.9186 73.4699L93.2084 72.1443C93.4092 72.0238 93.5297 71.8229 93.6101 71.622C93.6904 71.4212 93.6502 71.1802 93.5297 70.9793L88.5886 62.4228C88.4681 62.2219 88.3074 62.1014 88.0664 62.021C87.8254 61.9407 87.5843 61.9809 87.3835 62.1014L85.0937 63.427C84.7723 63.5877 84.4108 63.5476 84.1698 63.3065C81.7996 61.1373 78.9475 59.4902 75.9346 58.5663C75.573 58.4859 75.3722 58.1646 75.3722 57.8432V55.1919C75.3722 54.7098 74.9705 54.3081 74.4884 54.3081H64.6062C64.1241 54.3081 63.7224 54.7098 63.7224 55.1919V57.8834C63.7224 58.2047 63.4814 58.4859 63.16 58.6065C60.107 59.5706 57.295 61.2176 54.9249 63.3869C54.6437 63.6279 54.2821 63.6681 54.0009 63.5074L51.7111 62.1817C51.5504 62.0612 51.3094 62.021 51.0684 62.1014C50.8675 62.1416 50.6667 62.3022 50.5462 62.5031L45.6051 71.0596C45.4845 71.2203 45.4444 71.4614 45.5247 71.7024C45.5649 71.9032 45.7256 72.1041 45.9264 72.2246L48.2162 73.5503C48.4974 73.711 48.6581 74.0725 48.5777 74.3939C48.2564 75.9606 48.0555 77.5674 48.0555 79.1341C48.0555 80.7008 48.2162 82.3077 48.5777 83.8744C48.6581 84.1957 48.4974 84.5573 48.2162 84.718L45.9264 86.0436C45.5247 86.2847 45.364 86.8069 45.6051 87.2488L50.5462 95.8455C50.7872 96.2472 51.3094 96.4079 51.7513 96.1669L54.0411 94.8412C54.1214 94.7609 54.2821 94.7207 54.4026 94.7207C54.6035 94.7207 54.7642 94.801 54.9249 94.9216C57.295 97.0908 60.1472 98.7378 63.16 99.6618C63.5216 99.7421 63.7224 100.064 63.7224 100.385V103.076C63.7224 103.558 64.1241 103.96 64.6062 103.96H74.4482C74.9303 103.96 75.332 103.558 75.332 103.076V100.425C75.332 100.104 75.573 99.8225 75.8944 99.702C78.9475 98.7378 81.7595 97.0908 84.1296 94.9216C84.4108 94.6805 84.7723 94.6403 85.0535 94.801L87.3433 96.1267C87.745 96.3677 88.3074 96.2472 88.5485 95.8053ZM88.0651 79.0939C88.0651 89.4104 79.7019 97.7736 69.3853 97.7736C59.0688 97.7736 50.7056 89.4104 50.7056 79.0939C50.7056 68.7773 59.0688 60.4141 69.3853 60.4141C79.7019 60.4141 88.0651 68.7773 88.0651 79.0939Z"/>
</mask>
<path fill-rule="evenodd" clip-rule="evenodd" d="M88.5485 95.8053L93.5297 87.2488C93.7708 86.8069 93.6101 86.2847 93.2084 85.9633L90.9186 84.6376C90.6374 84.4769 90.4767 84.1154 90.557 83.794C90.8784 82.2273 91.0793 80.6205 91.0793 79.0538C91.0793 77.4871 90.9186 75.8802 90.557 74.3135C90.4767 73.9922 90.6374 73.6306 90.9186 73.4699L93.2084 72.1443C93.4092 72.0238 93.5297 71.8229 93.6101 71.622C93.6904 71.4212 93.6502 71.1802 93.5297 70.9793L88.5886 62.4228C88.4681 62.2219 88.3074 62.1014 88.0664 62.021C87.8254 61.9407 87.5843 61.9809 87.3835 62.1014L85.0937 63.427C84.7723 63.5877 84.4108 63.5476 84.1698 63.3065C81.7996 61.1373 78.9475 59.4902 75.9346 58.5663C75.573 58.4859 75.3722 58.1646 75.3722 57.8432V55.1919C75.3722 54.7098 74.9705 54.3081 74.4884 54.3081H64.6062C64.1241 54.3081 63.7224 54.7098 63.7224 55.1919V57.8834C63.7224 58.2047 63.4814 58.4859 63.16 58.6065C60.107 59.5706 57.295 61.2176 54.9249 63.3869C54.6437 63.6279 54.2821 63.6681 54.0009 63.5074L51.7111 62.1817C51.5504 62.0612 51.3094 62.021 51.0684 62.1014C50.8675 62.1416 50.6667 62.3022 50.5462 62.5031L45.6051 71.0596C45.4845 71.2203 45.4444 71.4614 45.5247 71.7024C45.5649 71.9032 45.7256 72.1041 45.9264 72.2246L48.2162 73.5503C48.4974 73.711 48.6581 74.0725 48.5777 74.3939C48.2564 75.9606 48.0555 77.5674 48.0555 79.1341C48.0555 80.7008 48.2162 82.3077 48.5777 83.8744C48.6581 84.1957 48.4974 84.5573 48.2162 84.718L45.9264 86.0436C45.5247 86.2847 45.364 86.8069 45.6051 87.2488L50.5462 95.8455C50.7872 96.2472 51.3094 96.4079 51.7513 96.1669L54.0411 94.8412C54.1214 94.7609 54.2821 94.7207 54.4026 94.7207C54.6035 94.7207 54.7642 94.801 54.9249 94.9216C57.295 97.0908 60.1472 98.7378 63.16 99.6618C63.5216 99.7421 63.7224 100.064 63.7224 100.385V103.076C63.7224 103.558 64.1241 103.96 64.6062 103.96H74.4482C74.9303 103.96 75.332 103.558 75.332 103.076V100.425C75.332 100.104 75.573 99.8225 75.8944 99.702C78.9475 98.7378 81.7595 97.0908 84.1296 94.9216C84.4108 94.6805 84.7723 94.6403 85.0535 94.801L87.3433 96.1267C87.745 96.3677 88.3074 96.2472 88.5485 95.8053ZM88.0651 79.0939C88.0651 89.4104 79.7019 97.7736 69.3853 97.7736C59.0688 97.7736 50.7056 89.4104 50.7056 79.0939C50.7056 68.7773 59.0688 60.4141 69.3853 60.4141C79.7019 60.4141 88.0651 68.7773 88.0651 79.0939Z" fill="#5BF0F0"/>
<path d="M93.5297 87.2488L93.8655 87.4442L93.8707 87.4347L93.5297 87.2488ZM88.5485 95.8053L88.2127 95.6099L88.2075 95.6194L88.5485 95.8053ZM93.2084 85.9633L93.451 85.66L93.4282 85.6418L93.4029 85.6272L93.2084 85.9633ZM90.9186 84.6376L91.1132 84.3015L91.1113 84.3004L90.9186 84.6376ZM90.557 83.794L90.9338 83.8882L90.9358 83.8802L90.9375 83.8721L90.557 83.794ZM90.557 74.3135L90.9355 74.2262L90.9338 74.2194L90.557 74.3135ZM90.9186 73.4699L91.1113 73.8071L91.1132 73.806L90.9186 73.4699ZM93.2084 72.1443L93.403 72.4804L93.4082 72.4773L93.2084 72.1443ZM93.6101 71.622L93.9707 71.7663L93.9707 71.7663L93.6101 71.622ZM93.5297 70.9793L93.1934 71.1735L93.1967 71.1791L93.5297 70.9793ZM88.5886 62.4228L88.925 62.2285L88.9216 62.223L88.5886 62.4228ZM88.0664 62.021L88.1892 61.6526L88.1892 61.6526L88.0664 62.021ZM87.3835 62.1014L87.5781 62.4375L87.5833 62.4344L87.3835 62.1014ZM85.0937 63.427L85.2674 63.7744L85.278 63.7691L85.2883 63.7631L85.0937 63.427ZM84.1698 63.3065L84.4444 63.0319L84.4383 63.0259L84.432 63.0201L84.1698 63.3065ZM75.9346 58.5663L76.0484 58.195L76.0338 58.1905L76.0188 58.1872L75.9346 58.5663ZM63.16 58.6065L63.277 58.9768L63.2868 58.9737L63.2964 58.9701L63.16 58.6065ZM54.9249 63.3869L55.1777 63.6819L55.1871 63.6734L54.9249 63.3869ZM54.0009 63.5074L53.8063 63.8435L53.8082 63.8446L54.0009 63.5074ZM51.7111 62.1817L51.4781 62.4924L51.4966 62.5063L51.5165 62.5178L51.7111 62.1817ZM51.0684 62.1014L51.1445 62.4822L51.1683 62.4775L51.1912 62.4698L51.0684 62.1014ZM50.5462 62.5031L50.2131 62.3033L50.2098 62.3089L50.5462 62.5031ZM45.6051 71.0596L45.9157 71.2927L45.9297 71.274L45.9414 71.2539L45.6051 71.0596ZM45.5247 71.7024L45.9055 71.6262L45.9008 71.6025L45.8931 71.5796L45.5247 71.7024ZM45.9264 72.2246L45.7266 72.5577L45.7318 72.5607L45.9264 72.2246ZM48.2162 73.5503L48.0216 73.8864L48.0235 73.8875L48.2162 73.5503ZM48.5777 74.3939L48.201 74.2997L48.199 74.3077L48.1973 74.3158L48.5777 74.3939ZM48.5777 83.8744L48.1993 83.9617L48.201 83.9686L48.5777 83.8744ZM48.2162 84.718L48.0235 84.3808L48.0216 84.3819L48.2162 84.718ZM45.9264 86.0436L45.7318 85.7075L45.7266 85.7106L45.9264 86.0436ZM45.6051 87.2488L45.264 87.4348L45.2683 87.4423L45.6051 87.2488ZM50.5462 95.8455L50.2094 96.0391L50.2131 96.0453L50.5462 95.8455ZM51.7513 96.1669L51.9373 96.5079L51.9459 96.503L51.7513 96.1669ZM54.0411 94.8412L54.2357 95.1773L54.2797 95.1518L54.3157 95.1158L54.0411 94.8412ZM54.9249 94.9216L55.1871 94.6351L55.1731 94.6223L55.1579 94.6109L54.9249 94.9216ZM63.16 99.6618L63.0462 100.033L63.0608 100.038L63.0758 100.041L63.16 99.6618ZM75.8944 99.702L75.7775 99.3316L75.7677 99.3347L75.7581 99.3383L75.8944 99.702ZM84.1296 94.9216L83.8767 94.6265L83.8674 94.6351L84.1296 94.9216ZM85.0535 94.801L85.2481 94.4649L85.2462 94.4638L85.0535 94.801ZM87.3433 96.1267L87.5431 95.7936L87.5379 95.7906L87.3433 96.1267ZM93.1941 87.0534L88.2128 95.6099L88.8841 96.0007L93.8654 87.4442L93.1941 87.0534ZM92.9658 86.2665C93.2544 86.4975 93.3203 86.8218 93.1888 87.0628L93.8707 87.4347C94.2213 86.792 93.9657 86.0718 93.451 85.66L92.9658 86.2665ZM90.724 84.9737L93.0138 86.2994L93.4029 85.6272L91.1132 84.3015L90.724 84.9737ZM90.1803 83.6998C90.0569 84.1935 90.2968 84.7296 90.7259 84.9748L91.1113 84.3004C90.978 84.2243 90.8965 84.0373 90.9338 83.8882L90.1803 83.6998ZM90.6909 79.0538C90.6909 80.5883 90.4941 82.1683 90.1766 83.716L90.9375 83.8721C91.2627 82.2863 91.4676 80.6527 91.4676 79.0538H90.6909ZM90.1786 74.4009C90.5329 75.9358 90.6909 77.5132 90.6909 79.0538H91.4676C91.4676 77.461 91.3043 75.8246 90.9354 74.2262L90.1786 74.4009ZM90.7259 73.1328C90.2968 73.378 90.0569 73.9141 90.1803 74.4077L90.9338 74.2194C90.8965 74.0703 90.978 73.8833 91.1113 73.8071L90.7259 73.1328ZM93.0138 71.8082L90.724 73.1338L91.1132 73.806L93.4029 72.4804L93.0138 71.8082ZM93.2495 71.4778C93.1825 71.6452 93.1037 71.7542 93.0086 71.8113L93.4082 72.4773C93.7148 72.2933 93.8769 72.0006 93.9707 71.7663L93.2495 71.4778ZM93.1967 71.1791C93.2722 71.305 93.2735 71.4178 93.2495 71.4778L93.9707 71.7663C94.1073 71.4246 94.0283 71.0553 93.8627 70.7795L93.1967 71.1791ZM88.2523 62.617L93.1934 71.1735L93.866 70.7851L88.9249 62.2286L88.2523 62.617ZM87.9436 62.3895C88.1092 62.4447 88.1892 62.5119 88.2556 62.6226L88.9216 62.223C88.747 61.932 88.5056 61.7581 88.1892 61.6526L87.9436 62.3895ZM87.5833 62.4344C87.6971 62.3661 87.8209 62.3486 87.9436 62.3895L88.1892 61.6526C87.8299 61.5328 87.4716 61.5956 87.1837 61.7684L87.5833 62.4344ZM85.2883 63.7631L87.5781 62.4375L87.1889 61.7653L84.8991 63.091L85.2883 63.7631ZM83.8951 63.5811C84.2704 63.9564 84.8179 63.9992 85.2674 63.7744L84.92 63.0797C84.7268 63.1763 84.5511 63.1387 84.4444 63.0319L83.8951 63.5811ZM75.8207 58.9376C78.7768 59.8441 81.5787 61.4615 83.9076 63.593L84.432 63.0201C82.0206 60.813 79.1181 59.1364 76.0484 58.195L75.8207 58.9376ZM74.9838 57.8432C74.9838 58.3159 75.2828 58.8193 75.8503 58.9454L76.0188 58.1872C75.8633 58.1526 75.7605 58.0132 75.7605 57.8432H74.9838ZM74.9838 55.1919V57.8432H75.7605V55.1919H74.9838ZM74.4884 54.6965C74.756 54.6965 74.9838 54.9243 74.9838 55.1919H75.7605C75.7605 54.4953 75.185 53.9197 74.4884 53.9197V54.6965ZM64.6062 54.6965H74.4884V53.9197H64.6062V54.6965ZM64.1108 55.1919C64.1108 54.9243 64.3386 54.6965 64.6062 54.6965V53.9197C63.9097 53.9197 63.3341 54.4953 63.3341 55.1919H64.1108ZM64.1108 57.8834V55.1919H63.3341V57.8834H64.1108ZM63.2964 58.9701C63.7268 58.8087 64.1108 58.4077 64.1108 57.8834H63.3341C63.3341 58.0017 63.236 58.1632 63.0237 58.2428L63.2964 58.9701ZM55.1871 63.6734C57.5168 61.5411 60.2796 59.9233 63.277 58.9768L63.0431 58.2361C59.9344 59.2178 57.0732 60.8942 54.6627 63.1004L55.1871 63.6734ZM53.8082 63.8446C54.2479 64.0958 54.7863 64.0171 55.1776 63.6817L54.6721 63.092C54.501 63.2387 54.3163 63.2404 54.1936 63.1702L53.8082 63.8446ZM51.5165 62.5178L53.8063 63.8435L54.1955 63.1713L51.9057 61.8456L51.5165 62.5178ZM51.1912 62.4698C51.3257 62.425 51.4309 62.457 51.4781 62.4924L51.9441 61.871C51.6699 61.6654 51.2931 61.6171 50.9456 61.733L51.1912 62.4698ZM50.8792 62.7029C50.9579 62.5718 51.0758 62.496 51.1445 62.4822L50.9922 61.7206C50.6593 61.7872 50.3755 62.0327 50.2131 62.3033L50.8792 62.7029ZM45.9414 71.2539L50.8825 62.6973L50.2098 62.3089L45.2687 70.8654L45.9414 71.2539ZM45.8931 71.5796C45.8483 71.4451 45.8804 71.3398 45.9157 71.2927L45.2944 70.8266C45.0887 71.1008 45.0404 71.4777 45.1563 71.8252L45.8931 71.5796ZM46.1262 71.8916C45.9951 71.8129 45.9193 71.695 45.9055 71.6262L45.1439 71.7786C45.2105 72.1115 45.456 72.3953 45.7266 72.5576L46.1262 71.8916ZM48.4108 73.2142L46.121 71.8885L45.7318 72.5607L48.0216 73.8864L48.4108 73.2142ZM48.9545 74.4881C49.0779 73.9944 48.838 73.4583 48.4089 73.2131L48.0235 73.8875C48.1568 73.9636 48.2383 74.1506 48.201 74.2997L48.9545 74.4881ZM48.4439 79.1341C48.4439 77.5997 48.6407 76.0196 48.9582 74.4719L48.1973 74.3158C47.872 75.9016 47.6672 77.5352 47.6672 79.1341H48.4439ZM48.9562 83.787C48.6019 82.2521 48.4439 80.6748 48.4439 79.1341H47.6672C47.6672 80.7269 47.8305 82.3633 48.1993 83.9617L48.9562 83.787ZM48.4089 85.0552C48.838 84.81 49.0779 84.2738 48.9545 83.7802L48.201 83.9686C48.2383 84.1176 48.1568 84.3046 48.0235 84.3808L48.4089 85.0552ZM46.121 86.3797L48.4108 85.0541L48.0216 84.3819L45.7318 85.7075L46.121 86.3797ZM45.946 87.0628C45.807 86.8079 45.899 86.513 46.1262 86.3766L45.7266 85.7106C45.1504 86.0564 44.9211 86.8058 45.2641 87.4347L45.946 87.0628ZM50.8829 95.652L45.9418 87.0553L45.2683 87.4423L50.2095 96.039L50.8829 95.652ZM51.5653 95.8259C51.3105 95.965 51.0155 95.8729 50.8792 95.6457L50.2131 96.0453C50.5589 96.6215 51.3084 96.8508 51.9373 96.5078L51.5653 95.8259ZM53.8465 94.5051L51.5567 95.8308L51.9459 96.503L54.2357 95.1773L53.8465 94.5051ZM54.4026 94.3323C54.3034 94.3323 54.1946 94.3483 54.0926 94.3796C53.996 94.4093 53.869 94.4641 53.7665 94.5666L54.3157 95.1158C54.3024 95.1291 54.294 95.1329 54.2973 95.1311C54.2999 95.1297 54.3077 95.1261 54.321 95.122C54.334 95.118 54.349 95.1146 54.3646 95.1122C54.3802 95.1099 54.3934 95.109 54.4026 95.109V94.3323ZM55.1579 94.6109C54.9631 94.4648 54.7212 94.3323 54.4026 94.3323V95.109C54.4858 95.109 54.5652 95.1373 54.6918 95.2322L55.1579 94.6109ZM63.2739 99.2905C60.3178 98.384 57.5159 96.7666 55.1871 94.6351L54.6627 95.208C57.074 97.415 59.9765 99.0917 63.0462 100.033L63.2739 99.2905ZM64.1108 100.385C64.1108 99.9122 63.8118 99.4088 63.2443 99.2827L63.0758 100.041C63.2313 100.075 63.3341 100.215 63.3341 100.385H64.1108ZM64.1108 103.076V100.385H63.3341V103.076H64.1108ZM64.6062 103.572C64.3386 103.572 64.1108 103.344 64.1108 103.076H63.3341C63.3341 103.773 63.9097 104.349 64.6062 104.349V103.572ZM74.4482 103.572H64.6062V104.349H74.4482V103.572ZM74.9437 103.076C74.9437 103.344 74.7158 103.572 74.4482 103.572V104.349C75.1448 104.349 75.7204 103.773 75.7204 103.076H74.9437ZM74.9437 100.425V103.076H75.7204V100.425H74.9437ZM75.7581 99.3383C75.3276 99.4997 74.9437 99.9007 74.9437 100.425H75.7204C75.7204 100.307 75.8185 100.145 76.0308 100.066L75.7581 99.3383ZM83.8674 94.6351C81.5376 96.7674 78.7748 98.3851 75.7775 99.3316L76.0114 100.072C79.1201 99.0906 81.9813 97.4143 84.3918 95.208L83.8674 94.6351ZM85.2462 94.4638C84.8066 94.2126 84.2681 94.2913 83.8768 94.6267L84.3823 95.2164C84.5535 95.0697 84.7381 95.0681 84.8609 95.1382L85.2462 94.4638ZM87.5379 95.7906L85.2481 94.4649L84.859 95.1371L87.1487 96.4628L87.5379 95.7906ZM88.2075 95.6194C88.0795 95.8541 87.7688 95.9291 87.5431 95.7937L87.1435 96.4597C87.7212 96.8063 88.5354 96.6403 88.8894 95.9913L88.2075 95.6194ZM69.3853 98.162C79.9164 98.162 88.4535 89.6249 88.4535 79.0939H87.6768C87.6768 89.1959 79.4874 97.3853 69.3853 97.3853V98.162ZM50.3172 79.0939C50.3172 89.6249 58.8543 98.162 69.3853 98.162V97.3853C59.2833 97.3853 51.0939 89.1959 51.0939 79.0939H50.3172ZM69.3853 60.0257C58.8543 60.0257 50.3172 68.5628 50.3172 79.0939H51.0939C51.0939 68.9918 59.2833 60.8024 69.3853 60.8024V60.0257ZM88.4535 79.0939C88.4535 68.5628 79.9164 60.0257 69.3853 60.0257V60.8024C79.4874 60.8024 87.6768 68.9918 87.6768 79.0939H88.4535Z" fill="#5BF0F0" mask="url(#path-11-inside-1_2619_8707)"/>
<path d="M65.8908 87.302L65.8907 87.302L65.893 87.3083C66.5254 89.07 66.8809 90.2732 66.9722 90.89C66.9687 91.0779 66.8998 91.2286 66.7864 91.3341C66.6691 91.4433 66.4871 91.5198 66.2366 91.5198C66.0011 91.5198 65.843 91.4618 65.7292 91.3598C65.6116 91.2544 65.5133 91.077 65.4504 90.7834L65.4505 90.7834L65.4487 90.7762L65.1301 89.5018L65.0885 89.3352H64.9167H61.3212H61.1494L61.1077 89.5018L60.7891 90.7762L60.789 90.7761L60.7875 90.7834C60.723 91.0842 60.6337 91.2595 60.5229 91.3624C60.4179 91.4599 60.2634 91.5198 60.0013 91.5198C59.5086 91.5198 59.228 91.2348 59.2202 90.8899C59.2649 90.5903 59.3842 90.1441 59.5688 89.5398C59.727 89.0219 59.93 88.3984 60.1682 87.6665C60.2115 87.5334 60.2559 87.3967 60.3015 87.2565C60.8911 85.4424 61.4339 84.0863 61.8839 83.1414L61.8843 83.1405C62.0619 82.763 62.2128 82.5553 62.3816 82.4353C62.5447 82.3195 62.7534 82.2655 63.0962 82.2655C63.4319 82.2655 63.6419 82.3281 63.8077 82.4502C63.98 82.5772 64.1312 82.7877 64.3085 83.1416C64.7595 84.1343 65.3022 85.4908 65.8908 87.302ZM61.5652 87.8546L61.4823 88.1367H61.7763H64.416H64.7213L64.6247 87.8471L64.6211 87.8361C64.078 86.2068 63.6663 84.9718 63.2989 84.0993L63.098 83.622L62.894 84.098C62.4807 85.0622 62.0227 86.2993 61.5652 87.8546ZM70.5603 88.4704H70.3403V88.6904V90.784C70.3403 91.0952 70.2674 91.2798 70.1631 91.3878C70.0602 91.4944 69.8892 91.5653 69.6045 91.5653C69.3273 91.5653 69.1393 91.4868 69.0205 91.368C68.9017 91.2492 68.8232 91.0612 68.8232 90.784V83.1378C68.8232 82.8678 68.9088 82.6785 69.035 82.5563C69.1624 82.4331 69.3537 82.3565 69.6045 82.3565H71.5161C72.6891 82.3565 73.5999 82.6444 74.2137 83.1586C74.822 83.6681 75.1647 84.4215 75.1647 85.4135C75.1647 86.4055 74.822 87.1588 74.2137 87.6684C73.5999 88.1825 72.6891 88.4704 71.5161 88.4704H70.5603ZM70.5603 83.555H70.3403V83.775V86.7409V86.9609V87.0064H70.5603V87.1809H71.4705C72.1048 87.1809 72.6328 87.0648 73.0037 86.7614C73.3842 86.4501 73.5566 85.9781 73.5566 85.368C73.5566 84.7579 73.3842 84.2858 73.0037 83.9745C72.6328 83.6711 72.1048 83.555 71.4705 83.555H70.5603ZM78.6692 90.7385C78.6692 91.0497 78.5963 91.2343 78.492 91.3423C78.3891 91.4488 78.218 91.5198 77.9334 91.5198C77.6487 91.5198 77.4623 91.4487 77.3467 91.337C77.2325 91.2266 77.1521 91.0422 77.1521 90.7385V83.0013C77.1521 82.7313 77.2377 82.5419 77.3639 82.4198C77.4912 82.2965 77.6825 82.22 77.9334 82.22C78.2102 82.22 78.3832 82.298 78.4894 82.4118C78.598 82.5282 78.6692 82.7166 78.6692 83.0013V90.7385Z" fill="#5BF0F0" stroke="#5BF0F0" stroke-width="0.439994"/>
<path d="M69.4123 71.6332C68.7966 71.2814 68.104 71.2484 67.4554 71.4243C67.8841 71.8421 68.093 72.5237 68.137 73.1284C68.3899 73.0954 68.6097 73.1834 68.7087 73.4582C68.9286 74.1068 67.8072 74.2168 66.9497 74.2168C66.5649 74.2168 66.2351 74.1838 66.0921 74.1728C65.7623 74.1508 65.4325 74.1068 65.1027 74.0409C64.0473 73.854 63.0248 73.5022 62.0684 73.0184C61.0239 72.5017 60.1114 74.0629 61.1559 74.5796C62.4312 75.2172 63.7834 75.657 65.1796 75.8659C65.5424 75.9208 65.9052 75.9648 66.268 75.9868C66.5539 76.0088 66.8507 76.0088 67.1585 76.0088C68.2799 75.9868 69.4673 75.7559 70.1489 74.8434C70.9734 73.788 70.5337 72.2709 69.4123 71.6332Z" fill="url(#paint0_linear_2619_8707)"/>
<path d="M73.348 66.4002C72.2266 63.8056 68.5546 63.7397 66.7406 65.6086C65.9271 66.4442 67.2134 67.7304 68.0159 66.8839C68.9174 65.9494 71.0722 65.6526 71.6769 67.1038C72.4025 68.8408 69.632 68.9068 68.6096 68.8188C67.4442 68.7199 67.4662 70.5009 68.6096 70.6328C69.9728 70.7538 71.2261 70.6548 72.3585 69.8303C72.3915 69.8083 72.4245 69.7863 72.4575 69.7643C73.5459 68.9398 73.8977 67.6645 73.348 66.4002Z" fill="url(#paint1_linear_2619_8707)"/>
<path d="M73.4469 70.6219C73.117 70.3031 72.7542 70.0502 72.3695 69.8303C71.2371 70.6549 69.9728 70.7538 68.6205 70.6329C70.7643 70.8638 72.9961 71.6773 73.0951 74.1729C73.183 76.4926 71.1051 77.7789 68.9613 77.2952C68.2028 77.1193 67.5541 76.6576 67.1913 76.0089C66.8835 76.0089 66.5866 76.0089 66.3008 75.9869C65.927 75.9649 65.5642 75.921 65.2124 75.866C65.6632 77.4491 67.0704 78.8014 68.7854 79.0982C71.7318 79.6149 74.5463 77.9548 74.8761 74.8655C75.019 73.3704 74.5572 71.6883 73.4469 70.6219Z" fill="url(#paint2_linear_2619_8707)"/>
<path d="M73.4469 70.6219C73.1171 70.3031 72.7543 70.0502 72.3695 69.8303C71.2371 70.6549 69.9728 70.7538 68.6206 70.6329C70.7644 70.8638 72.9962 71.6773 73.0951 74.1729C73.1831 76.4926 71.1052 77.7789 68.9614 77.2952C68.2028 77.1193 67.5542 76.6576 67.1914 76.0089C67.0265 75.7231 66.9275 75.3933 66.8945 75.0414C66.8725 74.7666 66.8945 74.4698 66.9715 74.2059C67.0375 73.975 67.1364 73.7661 67.2903 73.5902C67.5981 73.2274 68.5106 72.7987 68.7305 73.4583C68.8185 73.7222 68.6865 73.8871 68.4447 74.008C68.6865 74.5687 69.0823 75.0414 69.5221 75.4592C69.7749 75.3053 69.9948 75.1074 70.1927 74.8545C70.9953 73.7881 70.5665 72.271 69.4341 71.6223C68.1368 70.8747 66.4878 71.5234 65.6962 72.7107C65.4104 73.1395 65.2344 73.5793 65.1355 74.03C65.0036 74.6457 65.0476 75.2723 65.2125 75.866C65.6632 77.4491 67.0704 78.8014 68.7855 79.0982C71.7319 79.6149 74.5463 77.9548 74.8761 74.8655C75.019 73.3704 74.5573 71.6883 73.4469 70.6219Z" fill="url(#paint3_linear_2619_8707)"/>
</g>
<defs>
<linearGradient id="paint0_linear_2619_8707" x1="70.0307" y1="71.5406" x2="62.6821" y2="75.8006" gradientUnits="userSpaceOnUse">
<stop offset="0.4173" stop-color="#AB71FC"/>
<stop offset="0.8924" stop-color="#7136FC"/>
</linearGradient>
<linearGradient id="paint1_linear_2619_8707" x1="70.9105" y1="70.7959" x2="68.1965" y2="66.4864" gradientUnits="userSpaceOnUse">
<stop stop-color="#69E4FF"/>
<stop offset="1" stop-color="#446AFF"/>
</linearGradient>
<linearGradient id="paint2_linear_2619_8707" x1="60.7034" y1="74.5154" x2="74.8924" y2="74.5154" gradientUnits="userSpaceOnUse">
<stop stop-color="#00DAB7"/>
<stop offset="0.5098" stop-color="#00C4D8"/>
<stop offset="1" stop-color="#4461CC"/>
</linearGradient>
<linearGradient id="paint3_linear_2619_8707" x1="67.2447" y1="79.8999" x2="73.3002" y2="71.2744" gradientUnits="userSpaceOnUse">
<stop stop-color="#FF1287"/>
<stop offset="0.4157" stop-color="#AF72FE"/>
<stop offset="0.9995" stop-color="#4457CC"/>
</linearGradient>
<clipPath id="clip0_2619_8707">
<rect width="107" height="107" fill="white" transform="translate(16 16)"/>
</clipPath>
</defs>
</svg>
